<svg fill="none" height="288" viewBox="0 0 288 288" width="288" xmlns="http://www.w3.org/2000/svg"><path d="m162.789 201.379-66.2971-38.057-7.3098-18.043 79.9109-48.1302 12.618 12.5562v80.8c0 9.664-10.51 15.704-18.922 10.874z" fill="#fcd53f"/><path d="m181.711 111.881c-36.347 1.486-67.735 22.094-84.2727 51.981l-13.9635-8.015c-6.1069-3.507-8.1846-11.367-3.9871-17.009 28.1333-37.772 68.8333-49.2771 89.3573-52.7551 7.011-1.1886 12.866 4.361 12.866 11.4425z" fill="#f3ad61"/><path d="m173.299 139.001c0 3.885-1.55 7.611-4.311 10.358-2.761 2.748-6.505 4.291-10.409 4.291s-7.648-1.543-10.409-4.291c-2.761-2.747-4.312-6.473-4.312-10.358s1.551-7.61 4.312-10.358c2.761-2.747 6.505-4.29 10.409-4.29s7.648 1.543 10.409 4.29c2.761 2.748 4.311 6.473 4.311 10.358zm-33.646 25.112c0 2.775-1.108 5.436-3.08 7.399-1.972 1.962-4.646 3.064-7.435 3.064s-5.463-1.102-7.435-3.064c-1.972-1.963-3.08-4.624-3.08-7.399s1.108-5.436 3.08-7.399c1.972-1.962 4.646-3.064 7.435-3.064s5.463 1.102 7.435 3.064c1.972 1.963 3.08 4.624 3.08 7.399zm21.029 18.834c2.231 0 4.37-.882 5.948-2.452 1.577-1.57 2.464-3.699 2.464-5.919s-.887-4.349-2.464-5.919c-1.578-1.569-3.717-2.451-5.948-2.451s-4.371.882-5.948 2.451c-1.578 1.57-2.464 3.699-2.464 5.919s.886 4.349 2.464 5.919c1.577 1.57 3.717 2.452 5.948 2.452z" fill="#f8312f"/></svg>